<?xml version="1.0" encoding="utf-8"?>
<!-- Generator: Adobe Illustrator 25.2.1, SVG Export Plug-In . SVG Version: 6.00 Build 0)  -->
<svg version="1.1" xmlns="http://www.w3.org/2000/svg" xmlns:xlink="http://www.w3.org/1999/xlink" x="0px" y="0px"
	 viewBox="0 0 2000 440.4" style="enable-background:new 0 0 2000 440.4;" xml:space="preserve">
<style type="text/css">
	.st0{fill:#A12228;}
	.st1{fill:#FFFFFF;}
	.st2{display:none;}
	.st3{display:inline;}
</style>
<g id="light_bg">
	<g id="Layer_2_5_">
		<g id="Engineering_Red_3_">
			<path class="st0" d="M196.2,0.7H0.4l66.3,71.8h120.9c37.3,0,67.9,29.2,67.9,65l0,0c0,35.7-30.5,65-67.9,65H23.5l66.3,71.8h106.4
				c78.6,0,142.9-61.5,142.9-136.8l0,0C339,62.2,274.8,0.7,196.2,0.7z"/>
			<polygon class="st0" points="332.6,440.5 108.5,205.3 12.9,202.1 232.9,440.5 			"/>
		</g>
	</g>
	<g>
		<path class="st1" d="M470.5,440.8V0.4h183.3c4.4,0,9.9,0.2,16.4,0.5c6.5,0.3,12.7,1,18.6,2C714,6.7,735.1,15,752,27.9
			c16.9,12.8,29.6,29.1,38,48.6c8.4,19.6,12.6,41.2,12.6,64.8c0,35.1-9.2,65.3-27.7,90.7c-18.5,25.4-46.2,41.2-83.2,47.6l-26.8,3.1
			H536.4v158.1H470.5z M536.4,222.1h115c4.2,0,8.9-0.2,14-0.6c5.1-0.4,10-1.1,14.6-2.1c13.4-3.1,24.3-8.7,32.4-17
			c8.2-8.3,14.1-17.8,17.6-28.6c3.6-10.8,5.4-21.6,5.4-32.4c0-10.8-1.8-21.6-5.4-32.3c-3.6-10.7-9.4-20.2-17.6-28.4
			c-8.2-8.3-19-13.9-32.4-17c-4.6-1.2-9.5-2-14.6-2.4c-5.1-0.4-9.8-0.6-14-0.6h-115V222.1z M735.8,440.8l-89.5-179.2l66.5-16.5
			l98.3,195.7H735.8z"/>
		<path class="st1" d="M880.4,440.8V0.4h289.8v60.2h-224v123.6h186.2v60.2H946.2v136.1h224v60.2H880.4z"/>
		<path class="st1" d="M1245.7,440.8V0.4h65.8v205.5L1501.5,0.4h81.9l-200.7,215l215.5,225.4h-84.4l-202.2-210.4v210.4H1245.7z"/>
		<path class="st1" d="M1610.8,440.8L1758.2,0.4h94.8l147.4,440.4h-68.4L1796.3,38.9h17l-134.2,401.9H1610.8z M1687.3,341.4v-59.9
			h236.9v59.9H1687.3z"/>
	</g>
	<g id="Layer_2_1_">
		<g id="Engineering_Red_1_">
			<path class="st0" d="M196.2,0.7H0.4l66.3,71.8h120.9c37.3,0,67.9,29.2,67.9,65l0,0c0,35.7-30.5,65-67.9,65H23.5l66.3,71.8h106.4
				c78.6,0,142.9-61.5,142.9-136.8l0,0C339,62.2,274.8,0.7,196.2,0.7z"/>
			<polygon class="st0" points="332.6,440.5 108.5,205.3 12.9,202.1 232.9,440.5 			"/>
		</g>
	</g>
	<g>
		<path class="st1" d="M470.5,440.8V0.4h183.3c4.4,0,9.9,0.2,16.4,0.5c6.5,0.3,12.7,1,18.6,2C714,6.7,735.1,15,752,27.9
			c16.9,12.8,29.6,29.1,38,48.6c8.4,19.6,12.6,41.2,12.6,64.8c0,35.1-9.2,65.3-27.7,90.7c-18.5,25.4-46.2,41.2-83.2,47.6l-26.8,3.1
			H536.4v158.1H470.5z M536.4,222.1h115c4.2,0,8.9-0.2,14-0.6c5.1-0.4,10-1.1,14.6-2.1c13.4-3.1,24.3-8.7,32.4-17
			c8.2-8.3,14.1-17.8,17.6-28.6c3.6-10.8,5.4-21.6,5.4-32.4c0-10.8-1.8-21.6-5.4-32.3c-3.6-10.7-9.4-20.2-17.6-28.4
			c-8.2-8.3-19-13.9-32.4-17c-4.6-1.2-9.5-2-14.6-2.4c-5.1-0.4-9.8-0.6-14-0.6h-115V222.1z M735.8,440.8l-89.5-179.2l66.5-16.5
			l98.3,195.7H735.8z"/>
		<path class="st1" d="M880.4,440.8V0.4h289.8v60.2h-224v123.6h186.2v60.2H946.2v136.1h224v60.2H880.4z"/>
		<path class="st1" d="M1245.7,440.8V0.4h65.8v205.5L1501.5,0.4h81.9l-200.7,215l215.5,225.4h-84.4l-202.2-210.4v210.4H1245.7z"/>
		<path class="st1" d="M1610.8,440.8L1758.2,0.4h94.8l147.4,440.4h-68.4L1796.3,38.9h17l-134.2,401.9H1610.8z M1687.3,341.4v-59.9
			h236.9v59.9H1687.3z"/>
	</g>
</g>
<g id="dark_bg" class="st2">
	<g class="st3">
		<g id="Layer_2_3_">
			<g id="Engineering_Red_4_">
				<path class="st0" d="M196.2,0.7H0.4l66.3,71.8h120.9c37.3,0,67.9,29.2,67.9,65l0,0c0,35.7-30.5,65-67.9,65H23.5l66.3,71.8h106.4
					c78.6,0,142.9-61.5,142.9-136.8l0,0C339,62.2,274.8,0.7,196.2,0.7z"/>
				<polygon class="st0" points="332.6,440.5 108.5,205.3 12.9,202.1 232.9,440.5 				"/>
			</g>
		</g>
		<g>
			<path d="M470.5,440.8V0.4h183.3c4.4,0,9.9,0.2,16.4,0.5c6.5,0.3,12.7,1,18.6,2C714,6.7,735.1,15,752,27.9
				c16.9,12.8,29.6,29.1,38,48.6c8.4,19.6,12.6,41.2,12.6,64.8c0,35.1-9.2,65.3-27.7,90.7c-18.5,25.4-46.2,41.2-83.2,47.6l-26.8,3.1
				H536.4v158.1H470.5z M536.4,222.1h115c4.2,0,8.9-0.2,14-0.6c5.1-0.4,10-1.1,14.6-2.1c13.4-3.1,24.3-8.7,32.4-17
				c8.2-8.3,14.1-17.8,17.6-28.6c3.6-10.8,5.4-21.6,5.4-32.4c0-10.8-1.8-21.6-5.4-32.3c-3.6-10.7-9.4-20.2-17.6-28.4
				c-8.2-8.3-19-13.9-32.4-17c-4.6-1.2-9.5-2-14.6-2.4c-5.1-0.4-9.8-0.6-14-0.6h-115V222.1z M735.8,440.8l-89.5-179.2l66.5-16.5
				l98.3,195.7H735.8z"/>
			<path d="M880.4,440.8V0.4h289.8v60.2h-224v123.6h186.2v60.2H946.2v136.1h224v60.2H880.4z"/>
			<path d="M1245.7,440.8V0.4h65.8v205.5L1501.5,0.4h81.9l-200.7,215l215.5,225.4h-84.4l-202.2-210.4v210.4H1245.7z"/>
			<path d="M1610.8,440.8L1758.2,0.4h94.8l147.4,440.4h-68.4L1796.3,38.9h17l-134.2,401.9H1610.8z M1687.3,341.4v-59.9h236.9v59.9
				H1687.3z"/>
		</g>
	</g>
	<g class="st3">
		<g id="Layer_2_2_">
			<g id="Engineering_Red_2_">
				<path class="st0" d="M196.2,0.7H0.4l66.3,71.8h120.9c37.3,0,67.9,29.2,67.9,65l0,0c0,35.7-30.5,65-67.9,65H23.5l66.3,71.8h106.4
					c78.6,0,142.9-61.5,142.9-136.8l0,0C339,62.2,274.8,0.7,196.2,0.7z"/>
				<polygon class="st0" points="332.6,440.5 108.5,205.3 12.9,202.1 232.9,440.5 				"/>
			</g>
		</g>
		<g>
			<path d="M470.5,440.8V0.4h183.3c4.4,0,9.9,0.2,16.4,0.5c6.5,0.3,12.7,1,18.6,2C714,6.7,735.1,15,752,27.9
				c16.9,12.8,29.6,29.1,38,48.6c8.4,19.6,12.6,41.2,12.6,64.8c0,35.1-9.2,65.3-27.7,90.7c-18.5,25.4-46.2,41.2-83.2,47.6l-26.8,3.1
				H536.4v158.1H470.5z M536.4,222.1h115c4.2,0,8.9-0.2,14-0.6c5.1-0.4,10-1.1,14.6-2.1c13.4-3.1,24.3-8.7,32.4-17
				c8.2-8.3,14.1-17.8,17.6-28.6c3.6-10.8,5.4-21.6,5.4-32.4c0-10.8-1.8-21.6-5.4-32.3c-3.6-10.7-9.4-20.2-17.6-28.4
				c-8.2-8.3-19-13.9-32.4-17c-4.6-1.2-9.5-2-14.6-2.4c-5.1-0.4-9.8-0.6-14-0.6h-115V222.1z M735.8,440.8l-89.5-179.2l66.5-16.5
				l98.3,195.7H735.8z"/>
			<path d="M880.4,440.8V0.4h289.8v60.2h-224v123.6h186.2v60.2H946.2v136.1h224v60.2H880.4z"/>
			<path d="M1245.7,440.8V0.4h65.8v205.5L1501.5,0.4h81.9l-200.7,215l215.5,225.4h-84.4l-202.2-210.4v210.4H1245.7z"/>
			<path d="M1610.8,440.8L1758.2,0.4h94.8l147.4,440.4h-68.4L1796.3,38.9h17l-134.2,401.9H1610.8z M1687.3,341.4v-59.9h236.9v59.9
				H1687.3z"/>
		</g>
	</g>
</g>
</svg>
